<svg viewBox="0 0 640 400" data-background-color="#ffffff" preserveAspectRatio="xMidYMid meet" height="400" width="640" xmlns="http://www.w3.org/2000/svg" xmlns:xlink="http://www.w3.org/1999/xlink"><rect width="640" height="400" x="0" y="0" opacity="1" fill="#ffffff" data-fill-palette-color="background" id="background"></rect><g id="tight-bounds" transform="matrix(1,0,0,1,122.24000000000001,158.07871893507826)"><svg viewBox="0 0 395.52 83.8425621298435" height="83.8425621298435" width="395.52"><g><svg viewBox="0 0 526.091442917087 111.52117336355907" height="83.8425621298435" width="395.52"><g transform="matrix(1,0,0,1,0,15.412839444601872)"><svg viewBox="0 0 395.52 80.69549447435533" height="80.69549447435533" width="395.52"><g id="textblocktransform"><svg viewBox="0 0 395.52 80.69549447435533" height="80.69549447435533" width="395.52" id="textblock"><g><svg viewBox="0 0 395.52 80.69549447435533" height="80.69549447435533" width="395.52"><g transform="matrix(1,0,0,1,0,0)"><svg width="395.52" viewBox="2.200000047683716 -35.5 176.4300079345703 36" height="80.69549447435533" data-palette-color="#ed1703"><path d="M5.5 0L2.2 0 2.2-34.2Q2.2-34.2 2.33-34.6 2.45-35 3.05-35L3.05-35 15.05-35Q15.05-33.35 15-32.63 14.95-31.9 14.8-31.7 14.65-31.5 14.3-31.5L14.3-31.5 6.25-31.5 6.25-0.8Q6.25-0.8 6.2-0.4 6.15 0 5.5 0L5.5 0ZM13.05-17.2L2.75-17.2 2.75-20.9 13.8-20.9Q13.8-18.6 13.7-17.9 13.6-17.2 13.05-17.2L13.05-17.2ZM26.15 0.5L26.15 0.5Q23.7 0.5 21.97-0.33 20.25-1.15 19.17-3.2 18.1-5.25 17.6-8.78 17.1-12.3 17.1-17.7L17.1-17.7Q17.1-24.35 18.15-28.25 19.2-32.15 21.32-33.83 23.45-35.5 26.7-35.5L26.7-35.5Q29.1-35.5 30.8-34.63 32.5-33.75 33.55-31.73 34.6-29.7 35.07-26.33 35.55-22.95 35.55-17.85L35.55-17.85Q35.55-10.95 34.57-6.95 33.6-2.95 31.52-1.23 29.45 0.5 26.15 0.5ZM26.3-3.7L26.3-3.7Q28.15-3.7 29.17-5.08 30.2-6.45 30.67-9.58 31.15-12.7 31.15-17.75L31.15-17.75Q31.15-22.75 30.75-25.73 30.35-28.7 29.37-30 28.4-31.3 26.6-31.3L26.6-31.3Q24.85-31.3 23.75-29.9 22.65-28.5 22.15-25.3 21.65-22.1 21.65-16.7L21.65-16.7Q21.65-12.05 22.07-9.2 22.5-6.35 23.52-5.03 24.55-3.7 26.3-3.7ZM47.6 0.5L47.6 0.5Q45.15 0.5 43.42-0.33 41.7-1.15 40.62-3.2 39.55-5.25 39.05-8.78 38.55-12.3 38.55-17.7L38.55-17.7Q38.55-24.35 39.6-28.25 40.65-32.15 42.77-33.83 44.9-35.5 48.15-35.5L48.15-35.5Q50.55-35.5 52.25-34.63 53.95-33.75 55-31.73 56.05-29.7 56.52-26.33 57-22.95 57-17.85L57-17.85Q57-10.95 56.02-6.95 55.05-2.95 52.97-1.23 50.9 0.5 47.6 0.5ZM47.75-3.7L47.75-3.7Q49.6-3.7 50.62-5.08 51.65-6.45 52.12-9.58 52.6-12.7 52.6-17.75L52.6-17.75Q52.6-22.75 52.2-25.73 51.8-28.7 50.82-30 49.85-31.3 48.05-31.3L48.05-31.3Q46.3-31.3 45.2-29.9 44.1-28.5 43.6-25.3 43.1-22.1 43.1-16.7L43.1-16.7Q43.1-12.05 43.52-9.2 43.95-6.35 44.97-5.03 46-3.7 47.75-3.7ZM66.94 0L60.69 0 60.69-34.05Q60.69-34.5 60.97-34.75 61.24-35 62.04-35L62.04-35 66.89-35Q69.34-35 71.19-34.25 73.04-33.5 74.24-31.73 75.44-29.95 76.07-26.9 76.69-23.85 76.69-19.3L76.69-19.3Q76.69-13.8 76.04-10.08 75.39-6.35 74.12-4.15 72.84-1.95 71.04-0.98 69.24 0 66.94 0L66.94 0ZM64.74-31.25L64.74-3.85 66.99-3.85Q67.99-3.85 68.89-4.4 69.79-4.95 70.52-6.58 71.24-8.2 71.67-11.35 72.09-14.5 72.09-19.7L72.09-19.7Q72.09-23.15 71.77-25.4 71.44-27.65 70.82-28.95 70.19-30.25 69.24-30.75 68.29-31.25 67.04-31.25L67.04-31.25 64.74-31.25ZM96.29 0.5L96.29 0.5Q93.84 0.5 92.11-0.33 90.39-1.15 89.31-3.2 88.24-5.25 87.74-8.78 87.24-12.3 87.24-17.7L87.24-17.7Q87.24-24.35 88.29-28.25 89.34-32.15 91.46-33.83 93.59-35.5 96.84-35.5L96.84-35.5Q99.24-35.5 100.94-34.63 102.64-33.75 103.69-31.73 104.74-29.7 105.21-26.33 105.69-22.95 105.69-17.85L105.69-17.85Q105.69-10.95 104.71-6.95 103.74-2.95 101.66-1.23 99.59 0.5 96.29 0.5ZM96.44-3.7L96.44-3.7Q98.29-3.7 99.31-5.08 100.34-6.45 100.81-9.58 101.29-12.7 101.29-17.75L101.29-17.75Q101.29-22.75 100.89-25.73 100.49-28.7 99.51-30 98.54-31.3 96.74-31.3L96.74-31.3Q94.99-31.3 93.89-29.9 92.79-28.5 92.29-25.3 91.79-22.1 91.79-16.7L91.79-16.7Q91.79-12.05 92.21-9.2 92.64-6.35 93.66-5.03 94.69-3.7 96.44-3.7ZM115.19-14.2L110.74-14.2Q109.99-14.2 109.94-14.45 109.89-14.7 109.89-15.3L109.89-15.3 109.89-34.05Q109.89-34.2 109.91-34.6 109.94-35 110.49-35L110.49-35 115.14-35Q118.29-35 120.34-33.98 122.39-32.95 123.36-30.78 124.34-28.6 124.34-25.1L124.34-25.1Q124.34-22 123.61-19.93 122.89-17.85 121.61-16.6 120.34-15.35 118.69-14.78 117.04-14.2 115.19-14.2L115.19-14.2ZM109.34 0L109.34 0 109.34-34.2Q109.34-34.2 109.46-34.6 109.59-35 110.19-35L110.19-35 112.59-35Q113.19-35 113.29-34.6 113.39-34.2 113.39-34.2L113.39-34.2 113.39-0.8Q113.39-0.4 113.21-0.25 113.04-0.1 112.19-0.05 111.34 0 109.34 0ZM122.64 0.1L122.64 0.1Q122.19 0.1 121.56 0.08 120.94 0.05 120.24 0L120.24 0Q119.99-4.3 119.21-7.23 118.44-10.15 117.56-11.88 116.69-13.6 116.04-14.35 115.39-15.1 115.39-15.1L115.39-15.1Q115.39-15.1 115.29-15.4 115.19-15.7 115.69-16L115.69-16 117.89-17.2Q118.49-17.2 118.74-16.75L118.74-16.75Q118.74-16.75 119.54-15.85 120.34-14.95 121.44-13.03 122.54-11.1 123.49-8.1 124.44-5.1 124.69-0.9L124.69-0.9Q124.69-0.35 124.39-0.13 124.09 0.1 122.64 0.1ZM113.29-31.45L113.29-17.95 115.59-17.95Q116.99-17.95 117.91-18.68 118.84-19.4 119.34-21.03 119.84-22.65 119.84-25.3L119.84-25.3Q119.84-27.2 119.49-28.6 119.14-30 118.26-30.73 117.39-31.45 115.89-31.45L115.89-31.45 113.29-31.45ZM134.23 0L127.98 0 127.98-34.05Q127.98-34.5 128.26-34.75 128.53-35 129.33-35L129.33-35 134.18-35Q136.63-35 138.48-34.25 140.33-33.5 141.53-31.73 142.73-29.95 143.36-26.9 143.98-23.85 143.98-19.3L143.98-19.3Q143.98-13.8 143.33-10.08 142.68-6.35 141.41-4.15 140.13-1.95 138.33-0.98 136.53 0 134.23 0L134.23 0ZM132.03-31.25L132.03-3.85 134.28-3.85Q135.28-3.85 136.18-4.4 137.08-4.95 137.81-6.58 138.53-8.2 138.96-11.35 139.38-14.5 139.38-19.7L139.38-19.7Q139.38-23.15 139.06-25.4 138.73-27.65 138.11-28.95 137.48-30.25 136.53-30.75 135.58-31.25 134.33-31.25L134.33-31.25 132.03-31.25ZM159.18 0L147.33 0 147.33-34.2Q147.33-34.2 147.46-34.6 147.58-35 148.18-35L148.18-35 160.18-35Q160.18-33.35 160.13-32.6 160.08-31.85 159.93-31.6 159.78-31.35 159.43-31.35L159.43-31.35 151.38-31.35 151.38-3.65 159.98-3.65Q159.98-1.95 159.93-1.18 159.88-0.4 159.73-0.2 159.58 0 159.18 0L159.18 0ZM158.18-17.2L147.88-17.2 147.88-20.9 158.93-20.9Q158.93-18.6 158.83-17.9 158.73-17.2 158.18-17.2L158.18-17.2ZM169.13-14.2L164.68-14.2Q163.93-14.2 163.88-14.45 163.83-14.7 163.83-15.3L163.83-15.3 163.83-34.05Q163.83-34.2 163.85-34.6 163.88-35 164.43-35L164.43-35 169.08-35Q172.23-35 174.28-33.98 176.33-32.95 177.3-30.78 178.28-28.6 178.28-25.1L178.28-25.1Q178.28-22 177.55-19.93 176.83-17.85 175.55-16.6 174.28-15.35 172.63-14.78 170.98-14.2 169.13-14.2L169.13-14.2ZM163.28 0L163.28 0 163.28-34.2Q163.28-34.2 163.4-34.6 163.53-35 164.13-35L164.13-35 166.53-35Q167.13-35 167.23-34.6 167.33-34.2 167.33-34.2L167.33-34.2 167.33-0.8Q167.33-0.4 167.15-0.25 166.98-0.1 166.13-0.05 165.28 0 163.28 0ZM176.58 0.1L176.58 0.1Q176.13 0.1 175.5 0.08 174.88 0.05 174.18 0L174.18 0Q173.93-4.3 173.15-7.23 172.38-10.15 171.5-11.88 170.63-13.6 169.98-14.35 169.33-15.1 169.33-15.1L169.33-15.1Q169.33-15.1 169.23-15.4 169.13-15.7 169.63-16L169.63-16 171.83-17.2Q172.43-17.2 172.68-16.75L172.68-16.75Q172.68-16.75 173.48-15.85 174.28-14.95 175.38-13.03 176.48-11.1 177.43-8.1 178.38-5.1 178.63-0.9L178.63-0.9Q178.63-0.35 178.33-0.13 178.03 0.1 176.58 0.1ZM167.23-31.45L167.23-17.95 169.53-17.95Q170.93-17.95 171.85-18.68 172.78-19.4 173.28-21.03 173.78-22.65 173.78-25.3L173.78-25.3Q173.78-27.2 173.43-28.6 173.08-30 172.2-30.73 171.33-31.45 169.83-31.45L169.83-31.45 167.23-31.45Z" opacity="1" transform="matrix(1,0,0,1,0,0)" fill="#ed1703" class="wordmark-text-0" data-fill-palette-color="primary" id="text-0"></path></svg></g></svg></g></svg></g></svg></g><g transform="matrix(1,0,0,1,414.5702695535279,0)"><svg viewBox="0 0 111.52117336355907 111.52117336355907" height="111.52117336355907" width="111.52117336355907"><g data-palette-color="#ed1703"><rect width="30.482454052706146" height="111.52117336355907" fill="#ed1703" stroke="transparent" data-fill-palette-color="accent" x="0" fill-opacity="1"></rect><rect width="30.482454052706146" height="111.52117336355907" fill="#ed1703" stroke="transparent" data-fill-palette-color="accent" x="37.17372445451969" fill-opacity="0.75"></rect><rect width="30.482454052706146" height="111.52117336355907" fill="#ed1703" stroke="transparent" data-fill-palette-color="accent" x="74.34744890903939" fill-opacity="0.5"></rect></g></svg></g></svg></g><defs></defs></svg><rect width="395.52" height="83.8425621298435" fill="none" stroke="none" visibility="hidden"></rect></g></svg>